<svg xmlns="http://www.w3.org/2000/svg" viewBox="0 0 70 31"><path d="M12.803 10.691h-1.949c0-.146-.37-1.261-1.936-1.261-1.147 0-1.39.602-1.39 1.003 0 .932 1.554 1.12 2.48 1.355 1.046.265 3.096.808 3.096 2.874 0 1.146-.616 1.892-1.16 2.323-.718.559-1.721.846-2.896.846-2.908 0-4.179-1.662-4.315-3.255H6.95c.043.355.491 1.534 2.169 1.534 1.434 0 1.606-.76 1.606-1.076 0-.902-1.262-1.115-2.374-1.404-1.149-.3-3.117-.789-3.117-2.911 0-1.563 1.133-3.01 3.799-3.01 3.397.001 3.77 2.472 3.77 2.982M21.068 15.266c-.103.535-.797 2.566-3.5 2.566-1.205 0-2.094-.475-2.639-1.018-.502-.502-1.046-1.393-1.046-2.768 0-1.605.716-2.51 1.289-2.997.847-.716 1.764-.817 2.409-.817 1.391 0 2.266.631 2.753 1.22.445.53.846 1.404.846 2.638v.372h-5.007c0 .962.37 1.937 1.494 1.937.958 0 1.347-.738 1.434-1.133h1.967zm-2.081-2.022c0-.356-.161-1.578-1.377-1.578-1.215 0-1.437 1.072-1.437 1.578h2.814zM25.003 10.376h1.519v1.506h-1.519v3.282c0 .258 0 .574.229.817.186.187.429.215.659.215h.789v1.507c-.487.07-1.117.129-1.577.129-.53 0-1.247-.115-1.721-.617-.543-.572-.515-1.291-.515-1.992v-3.341h-1.148v-1.506h1.148l.2-2.236h1.936v2.236zM40.214 17.688h-1.205l-.357-1.074a3.17 3.17 0 0 1-.89.803c-.53.301-1.219.416-1.82.416-.889 0-2.007-.188-2.939-1.219-.859-.947-1.305-2.438-1.305-3.713 0-1.306.373-2.768 1.232-3.758 1.019-1.175 2.294-1.433 3.312-1.433 2.968 0 3.805 1.981 3.943 3.47h-2.223c-.042-.358-.185-.788-.4-1.076-.229-.315-.645-.673-1.362-.673-.56 0-1.219.229-1.649 1.061-.114.229-.386.831-.386 2.265 0 .846.099 1.778.458 2.38.302.501.816.976 1.662.976.532 0 .961-.201 1.248-.488.286-.287.503-.773.503-1.29v-.245H36.07v-1.678h4.145v5.276zM41.8 17.688v-7.312h1.865v1.62h.029a2.07 2.07 0 0 1 .53-1.146 1.928 1.928 0 0 1 1.447-.617c.13 0 .259.016.388.029v1.921h-.344c-.358 0-.703.072-.976.244-.702.444-.803 1.133-.803 1.906v3.354H41.8zM52.81 11.236c.344.345 1.089 1.247 1.089 2.781 0 1.176-.458 2.223-1.146 2.883-.501.473-1.319.932-2.48.932-1.163 0-1.979-.459-2.481-.932-.688-.66-1.146-1.707-1.146-2.883 0-1.534.746-2.437 1.091-2.781.846-.832 1.819-1.004 2.537-1.004.715 0 1.69.172 2.536 1.004m-3.556 1.004c-.345.53-.373 1.232-.373 1.777 0 .989.157 1.462.33 1.764.272.473.675.617 1.062.617a1.16 1.16 0 0 0 1.061-.617c.173-.302.33-.774.33-1.764 0-.545-.028-1.247-.372-1.777-.244-.387-.56-.574-1.019-.574s-.776.188-1.019.574zM57.086 10.376v4.402c0 .271 0 .788.242 1.103.158.215.43.33.73.33.344 0 .717-.157.962-.487.285-.372.33-.815.33-1.189v-4.158h2.135v7.312h-1.979v-1.305h-.027c-.374.861-1.12 1.449-2.193 1.449-.661 0-1.147-.201-1.52-.518-.718-.602-.819-1.434-.819-2.192v-4.746h2.139zM63.047 20.039v-9.663h1.979v1.176c.444-.86 1.305-1.319 2.222-1.319 1.793 0 2.753 1.563 2.753 3.729 0 2.752-1.42 3.871-2.839 3.871-.874 0-1.532-.359-1.978-1.076v3.283h-2.137zm2.137-5.275c0 1.018.472 1.635 1.246 1.635 1.063 0 1.332-1.162 1.332-2.395 0-1.663-.515-2.338-1.332-2.338-.76 0-1.246.646-1.246 1.521v1.577zM28.282 6.804h2.172v10.862h-2.172z"/><path d="M28.271 6.807h2.173v10.861h-2.173z"/><path fill="#ED1C24" d="M0 .293v30.414h30.448V19.879h-2.175v8.652H2.203L2.195 2.477l26.078-.008v2.177h2.175V.293z"/></svg>